<svg xmlns="http://www.w3.org/2000/svg" xmlns:xlink="http://www.w3.org/1999/xlink" viewBox="0,0,256,256" width="96px" height="96px"><g fill="#ffffff" fill-rule="nonzero" stroke="none" stroke-width="1" stroke-linecap="butt" stroke-linejoin="miter" stroke-miterlimit="10" stroke-dasharray="" stroke-dashoffset="0" font-family="none" font-weight="none" font-size="none" text-anchor="none" style="mix-blend-mode: normal"><g transform="scale(10.66667,10.66667)"><path d="M13.5,5l-0.4,-2.6c-0.1,-0.2 -0.3,-0.4 -0.5,-0.4h-1.2c-0.2,0 -0.5,0.2 -0.5,0.4l-0.4,2.6zM10.5,19l0.4,2.6c0,0.2 0.2,0.4 0.5,0.4h1.2c0.2,0 0.5,-0.2 0.5,-0.4l0.4,-2.6zM19,13.5l2.6,-0.4c0.2,0 0.4,-0.2 0.4,-0.5v-1.2c0,-0.2 -0.2,-0.5 -0.4,-0.5l-2.6,-0.4zM5,10.5l-2.6,0.4c-0.2,0.1 -0.4,0.3 -0.4,0.5v1.2c0,0.2 0.2,0.5 0.4,0.5l2.6,0.4zM9.8,5.2l-1.7,-2c-0.1,-0.2 -0.4,-0.3 -0.6,-0.1l-1,0.6c-0.2,0.1 -0.3,0.3 -0.2,0.5l0.9,2.5zM14.2,18.8l1.7,2c0.2,0.2 0.4,0.2 0.6,0.1l1,-0.6c0.2,-0.1 0.3,-0.4 0.2,-0.6l-0.9,-2.5zM18.8,9.8l2,-1.7c0.2,-0.1 0.3,-0.4 0.1,-0.6l-0.6,-1c-0.1,-0.2 -0.4,-0.3 -0.6,-0.2l-2.5,0.9zM5.2,14.2l-2,1.7c-0.2,0.1 -0.3,0.4 -0.1,0.6l0.6,1c0.1,0.2 0.4,0.3 0.6,0.2l2.5,-0.9zM6.7,7.2l-2.5,-0.9c-0.2,-0.1 -0.4,0 -0.6,0.2l-0.6,1c-0.1,0.2 0,0.5 0.2,0.6l2,1.7zM17.3,16.8l2.5,0.9c0.2,0.1 0.5,0 0.6,-0.2l0.6,-1c0.1,-0.2 0.1,-0.5 -0.1,-0.6l-2,-1.7zM16.8,6.7l0.9,-2.5c0.1,-0.2 0,-0.5 -0.2,-0.6l-1,-0.6c-0.2,-0.1 -0.5,0 -0.6,0.2l-1.7,2zM7.2,17.3l-0.9,2.5c-0.1,0.2 0,0.5 0.2,0.6l1,0.6c0.2,0.1 0.5,0 0.6,-0.2l1.7,-2zM12,15c-1.7,0 -3,-1.3 -3,-3c0,-1.7 1.3,-3 3,-3c1.7,0 3,1.3 3,3c0,1.7 -1.3,3 -3,3zM12,11c-0.6,0 -1,0.4 -1,1c0,0.6 0.4,1 1,1c0.6,0 1,-0.4 1,-1c0,-0.6 -0.4,-1 -1,-1z"></path><path d="M12,5c-3.9,0 -7,3.1 -7,7c0,3.9 3.1,7 7,7c3.9,0 7,-3.1 7,-7c0,-3.9 -3.1,-7 -7,-7zM12,14c-1.1,0 -2,-0.9 -2,-2c0,-1.1 0.9,-2 2,-2c1.1,0 2,0.9 2,2c0,1.1 -0.9,2 -2,2z" opacity="0.3"></path><path d="M11,5h2v6h-2z"></path><path transform="translate(-5.85502,6.14188) rotate(-29.991)" d="M5.5,13h6v2h-6z"></path><path transform="translate(-4.39121,20.39328) rotate(-60.007)" d="M14.5,11h2v6h-2z"></path><path d="M12,20c-4.4,0 -8,-3.6 -8,-8c0,-4.4 3.6,-8 8,-8c4.4,0 8,3.6 8,8c0,4.4 -3.6,8 -8,8zM12,6c-3.3,0 -6,2.7 -6,6c0,3.3 2.7,6 6,6c3.3,0 6,-2.7 6,-6c0,-3.3 -2.7,-6 -6,-6z"></path></g></g></svg>